<svg xmlns="http://www.w3.org/2000/svg" xmlns:xlink="http://www.w3.org/1999/xlink" width="3456" zoomAndPan="magnify" viewBox="0 0 2592 3455.999975" height="4608" preserveAspectRatio="xMidYMid meet" version="1.0"><defs><clipPath id="0c00b1e82f"><path d="M 456 658 L 1599 658 L 1599 1625 L 456 1625 Z M 456 658 " clip-rule="nonzero"/></clipPath><clipPath id="9c8df247a1"><path d="M 343.121094 841.011719 L 1558.988281 573.261719 L 1782.378906 1587.703125 L 566.511719 1855.453125 Z M 343.121094 841.011719 " clip-rule="nonzero"/></clipPath><clipPath id="f6dc7072d8"><path d="M 343.121094 841.011719 L 1558.988281 573.261719 L 1782.378906 1587.703125 L 566.511719 1855.453125 Z M 343.121094 841.011719 " clip-rule="nonzero"/></clipPath><clipPath id="e5bfd29af4"><path d="M 449 789 L 1614 789 L 1614 1777 L 449 1777 Z M 449 789 " clip-rule="nonzero"/></clipPath><clipPath id="ad5da91fc2"><path d="M 343.121094 841.011719 L 1558.988281 573.261719 L 1782.378906 1587.703125 L 566.511719 1855.453125 Z M 343.121094 841.011719 " clip-rule="nonzero"/></clipPath><clipPath id="e17d6e5696"><path d="M 343.121094 841.011719 L 1558.988281 573.261719 L 1782.378906 1587.703125 L 566.511719 1855.453125 Z M 343.121094 841.011719 " clip-rule="nonzero"/></clipPath><clipPath id="d35b1744af"><path d="M 372.320312 973.375 L 1549.933594 714.050781 L 1744.183594 1596.164062 L 566.570312 1855.488281 Z M 372.320312 973.375 " clip-rule="nonzero"/></clipPath><clipPath id="3b3bb52b0e"><path d="M 21 230 L 2508 230 L 2508 2094 L 21 2094 Z M 21 230 " clip-rule="nonzero"/></clipPath><clipPath id="ac0f46484d"><path d="M -72.847656 243.851562 L 2545.566406 188.46875 L 2591.765625 2372.730469 L -26.648438 2428.113281 Z M -72.847656 243.851562 " clip-rule="nonzero"/></clipPath><clipPath id="1724e6807a"><path d="M -72.847656 243.851562 L 2545.566406 188.46875 L 2591.765625 2372.730469 L -26.648438 2428.113281 Z M -72.847656 243.851562 " clip-rule="nonzero"/></clipPath><clipPath id="917e52f040"><path d="M 0 501 L 2481 501 L 2481 2410 L 0 2410 Z M 0 501 " clip-rule="nonzero"/></clipPath><clipPath id="c4a5cc6033"><path d="M -72.847656 243.851562 L 2545.566406 188.46875 L 2591.765625 2372.730469 L -26.648438 2428.113281 Z M -72.847656 243.851562 " clip-rule="nonzero"/></clipPath><clipPath id="821f1f623c"><path d="M -72.847656 243.851562 L 2545.566406 188.46875 L 2591.765625 2372.730469 L -26.648438 2428.113281 Z M -72.847656 243.851562 " clip-rule="nonzero"/></clipPath><clipPath id="58377e74f6"><path d="M -66.703125 528.875 L 2468.851562 475.242188 L 2509.027344 2374.546875 L -26.527344 2428.179688 Z M -66.703125 528.875 " clip-rule="nonzero"/></clipPath></defs><rect x="-259.2" width="3110.4" fill="#ffffff" y="-345.599998" height="4147.19997" fill-opacity="1"/><rect x="-259.2" width="3110.4" fill="#ffffff" y="-345.599998" height="4147.19997" fill-opacity="1"/><g clip-path="url(#0c00b1e82f)"><g clip-path="url(#9c8df247a1)"><g clip-path="url(#f6dc7072d8)"><path fill="#004aad" d="M 1596.101562 963.136719 C 1589.277344 1028.359375 1565.191406 1093.378906 1519.382812 1140.300781 C 1454.503906 1206.757812 1354.746094 1229.851562 1289.90625 1296.347656 C 1226.9375 1360.9375 1205.824219 1457.300781 1144.289062 1523.261719 C 1077.464844 1594.890625 974.011719 1621.15625 876.097656 1624.273438 C 778.84375 1627.363281 710.253906 1567.113281 705.019531 1493.351562 C 696.1875 1368.941406 504.023438 1331.84375 464.050781 1213.699219 C 436.617188 1132.609375 483.160156 1033.941406 563.1875 1003.539062 C 612.953125 984.636719 668.1875 990.410156 721.128906 984.867188 C 774.070312 979.308594 832.332031 955.898438 849.785156 905.605469 C 857.367188 883.777344 856.015625 859.96875 859.628906 837.144531 C 867.105469 789.902344 897.324219 746.796875 939.175781 723.652344 C 981.03125 700.515625 1033.605469 697.851562 1077.585938 716.636719 C 1106.21875 728.867188 1130.542969 749.21875 1157.6875 764.441406 C 1184.839844 779.667969 1217.730469 789.738281 1246.976562 779.070312 C 1283.714844 765.671875 1301.957031 725.410156 1329.933594 698.089844 C 1367.246094 661.652344 1425.972656 649.011719 1474.972656 666.871094 C 1589.03125 708.433594 1606.773438 861.222656 1596.101562 963.136719 " fill-opacity="1" fill-rule="nonzero"/></g></g></g><g clip-path="url(#e5bfd29af4)"><g clip-path="url(#ad5da91fc2)"><g clip-path="url(#e17d6e5696)"><g clip-path="url(#d35b1744af)"><path fill="#ffffff" d="M 596.339844 1147.28125 C 587.71875 1149.179688 579.25 1151.613281 570.933594 1154.773438 C 495.625 1183.375 452.21875 1275.410156 478.03125 1351.71875 C 495.546875 1403.472656 546.09375 1440.203125 594.980469 1475.726562 C 653.71875 1518.410156 714.453125 1562.542969 719.53125 1634 C 724.625 1705.796875 793.515625 1757.875 879.773438 1755.136719 C 959.554688 1752.605469 1069.574219 1733.597656 1140.597656 1657.472656 C 1169.800781 1626.175781 1190.253906 1586.5 1210.039062 1548.125 C 1231.253906 1506.976562 1253.199219 1464.417969 1286.375 1430.386719 C 1319.921875 1395.984375 1362.496094 1372.820312 1403.667969 1350.417969 C 1443.425781 1328.78125 1484.542969 1306.410156 1515.855469 1274.339844 C 1556.230469 1232.984375 1582.429688 1172.292969 1589.640625 1103.433594 C 1600.972656 995.164062 1577.84375 855.488281 1475.371094 818.152344 C 1429.851562 801.5625 1375.964844 813.15625 1341.300781 847.011719 C 1332.445312 855.65625 1324.640625 865.65625 1316.371094 876.234375 C 1299.410156 897.949219 1281.878906 920.402344 1254.589844 930.351562 C 1219.175781 943.28125 1181.734375 929.144531 1156.550781 915.019531 C 1145.640625 908.902344 1135.15625 901.980469 1125.03125 895.277344 C 1109.101562 884.746094 1094.054688 874.800781 1077.457031 867.710938 C 1036.625 850.265625 987.128906 852.785156 948.28125 874.265625 C 909.425781 895.742188 880.976562 936.328125 874.039062 980.179688 C 872.8125 987.921875 872.1875 995.753906 871.53125 1004.046875 C 870.316406 1019.332031 869.058594 1035.136719 863.742188 1050.453125 C 847.535156 1097.152344 796.105469 1129.390625 726.234375 1136.722656 C 709.234375 1138.507812 691.90625 1139.148438 675.144531 1139.773438 C 647.703125 1140.789062 621.394531 1141.765625 596.339844 1147.28125 Z M 982.285156 1763.941406 C 946.382812 1771.847656 911.25 1775.207031 880.441406 1776.1875 C 831.984375 1777.726562 786.902344 1763.898438 753.496094 1737.253906 C 720.855469 1711.21875 701.335938 1675.082031 698.523438 1635.488281 C 694.144531 1573.8125 639.964844 1534.445312 582.601562 1492.761719 C 531.050781 1455.300781 477.746094 1416.570312 458.085938 1358.46875 C 428.804688 1271.914062 478.039062 1167.535156 563.453125 1135.082031 C 599.191406 1121.515625 637.410156 1120.097656 674.363281 1118.726562 C 690.773438 1118.117188 707.746094 1117.488281 724.039062 1115.777344 C 747.109375 1113.359375 823.898438 1101.003906 843.847656 1043.546875 C 848.28125 1030.777344 849.375 1016.984375 850.539062 1002.378906 C 851.199219 994.046875 851.886719 985.4375 853.238281 976.886719 C 861.171875 926.773438 893.683594 880.382812 938.089844 855.835938 C 982.488281 831.285156 1039.0625 828.414062 1085.734375 848.339844 C 1104.089844 856.183594 1120.640625 867.125 1136.644531 877.710938 C 1146.460938 884.195312 1156.605469 890.90625 1166.847656 896.648438 C 1188.183594 908.613281 1219.472656 920.753906 1247.375 910.566406 C 1268.996094 902.6875 1283.941406 883.542969 1299.777344 863.273438 C 1308.105469 852.609375 1316.714844 841.582031 1326.585938 831.945312 C 1366.925781 792.554688 1429.613281 779.0625 1482.585938 798.367188 C 1536.328125 817.945312 1575.671875 863.691406 1596.378906 930.652344 C 1617.519531 999.007812 1614.351562 1069.617188 1610.585938 1105.625 C 1602.882812 1179.175781 1574.59375 1244.320312 1530.925781 1289.046875 C 1497.390625 1323.398438 1454.859375 1346.535156 1413.734375 1368.917969 C 1373.929688 1390.574219 1332.777344 1412.964844 1301.449219 1445.089844 C 1270.472656 1476.859375 1250.210938 1516.167969 1228.75 1557.777344 C 1208.316406 1597.421875 1187.179688 1638.410156 1155.996094 1671.832031 C 1107.96875 1723.320312 1044.003906 1750.351562 982.285156 1763.941406 " fill-opacity="1" fill-rule="nonzero"/></g></g></g></g><g clip-path="url(#3b3bb52b0e)"><g clip-path="url(#ac0f46484d)"><g clip-path="url(#1724e6807a)"><path fill="#babeb6" d="M 2462.285156 1008.011719 C 2421.546875 1139.777344 2345.277344 1264.078125 2231.578125 1342.160156 C 2070.5625 1452.742188 1855.308594 1459.609375 1694.359375 1570.292969 C 1538.046875 1677.804688 1455.097656 1867.988281 1301.179688 1978.917969 C 1134.03125 2099.378906 909.859375 2111.277344 706.578125 2077.683594 C 504.671875 2044.300781 387.789062 1891.964844 407.136719 1737.648438 C 439.769531 1477.363281 58.484375 1322.277344 24.3125 1062.1875 C 0.859375 883.675781 137.214844 699.136719 314.75 669.128906 C 425.148438 650.472656 536.742188 684.964844 648.234375 695.167969 C 759.734375 705.347656 889.496094 680.863281 946.070312 584.234375 C 970.632812 542.296875 977.578125 492.625 994.363281 447.011719 C 1029.101562 352.609375 1109.058594 276.023438 1204.871094 245.390625 C 1300.675781 214.761719 1410.234375 230.757812 1493.292969 287.496094 C 1547.363281 324.425781 1589.226562 376.359375 1639.007812 418.867188 C 1688.804688 461.378906 1752.546875 495.601562 1817.242188 485.542969 C 1898.511719 472.914062 1952.605469 397.3125 2021.496094 352.386719 C 2113.367188 292.460938 2239.695312 290.390625 2333.488281 347.261719 C 2551.816406 479.632812 2525.957031 802.109375 2462.285156 1008.011719 " fill-opacity="1" fill-rule="nonzero"/></g></g></g><g clip-path="url(#917e52f040)"><g clip-path="url(#c4a5cc6033)"><g clip-path="url(#821f1f623c)"><g clip-path="url(#58377e74f6)"><path fill="#ffffff" d="M 324.386719 979.234375 C 305.828125 979.628906 287.363281 981.1875 268.910156 984.304688 C 101.851562 1012.535156 -25.328125 1184.667969 -3.261719 1352.652344 C 11.710938 1466.589844 100.984375 1563.03125 187.324219 1656.300781 C 291.058594 1768.375 398.320312 1884.25 379.582031 2033.75 C 360.75 2183.957031 481.585938 2319.5625 660.664062 2349.167969 C 826.296875 2376.5625 1061.050781 2382.324219 1238.699219 2254.300781 C 1311.738281 2201.667969 1370.15625 2128.171875 1426.660156 2057.09375 C 1487.257812 1980.867188 1549.921875 1902.03125 1632.277344 1845.386719 C 1715.558594 1788.128906 1812.859375 1757.734375 1906.960938 1728.347656 C 1997.828125 1699.964844 2091.800781 1670.621094 2169.511719 1617.253906 C 2269.714844 1548.4375 2348.582031 1433.929688 2391.605469 1294.8125 C 2459.238281 1076.078125 2468.617188 778.453125 2272.472656 659.535156 C 2185.335938 606.699219 2069.425781 608.597656 1984.070312 664.273438 C 1962.269531 678.484375 1942.074219 695.925781 1920.695312 714.367188 C 1876.824219 752.238281 1831.472656 791.394531 1771.109375 800.761719 C 1692.757812 812.960938 1621.292969 768.492188 1575.105469 729.054688 C 1555.097656 711.976562 1536.304688 693.410156 1518.152344 675.441406 C 1489.589844 647.207031 1462.617188 620.535156 1431.273438 599.121094 C 1354.160156 546.445312 1251.015625 531.40625 1162.082031 559.839844 C 1073.144531 588.269531 997.859375 660.375 965.621094 748 C 959.925781 763.476562 955.4375 779.378906 950.691406 796.222656 C 941.933594 827.261719 932.878906 859.347656 915.652344 888.777344 C 863.125 978.496094 743.839844 1023.988281 596.691406 1010.550781 C 560.886719 1007.289062 524.875 1001.519531 490.042969 995.960938 C 433.015625 986.835938 378.332031 978.09375 324.386719 979.234375 Z M 868.554688 2409.246094 C 791.257812 2410.878906 717.398438 2403.445312 653.433594 2392.875 C 552.839844 2376.242188 465.476562 2329.285156 407.453125 2260.65625 C 350.753906 2193.601562 325.253906 2111.066406 335.632812 2028.230469 C 351.8125 1899.203125 256.125 1795.828125 154.820312 1686.386719 C 63.773438 1588.027344 -30.367188 1486.332031 -47.171875 1358.425781 C -72.207031 1167.882812 72.042969 972.660156 261.527344 940.628906 C 340.808594 927.246094 420.230469 939.941406 497.03125 952.222656 C 531.140625 957.667969 566.410156 963.308594 600.722656 966.4375 C 649.308594 970.886719 812.785156 976.785156 877.433594 866.394531 C 891.792969 841.867188 899.695312 813.855469 908.0625 784.195312 C 912.835938 767.273438 917.765625 749.796875 924.054688 732.710938 C 960.90625 632.5625 1046.941406 550.140625 1148.597656 517.652344 C 1250.230469 485.148438 1368.121094 502.355469 1456.265625 562.546875 C 1490.925781 586.226562 1520.601562 615.570312 1549.292969 643.949219 C 1566.894531 661.339844 1585.082031 679.332031 1603.863281 695.367188 C 1642.992188 728.773438 1702.582031 766.609375 1764.308594 757 C 1812.136719 749.578125 1850.800781 716.191406 1891.753906 680.851562 C 1913.296875 662.25 1935.570312 643.019531 1959.871094 627.175781 C 2059.199219 562.398438 2194.042969 560.1875 2295.445312 621.667969 C 2398.3125 684.023438 2460.785156 794.492188 2476.136719 941.101562 C 2491.804688 1090.769531 2456.40625 1235.152344 2433.917969 1307.894531 C 2387.957031 1456.492188 2302.964844 1579.332031 2194.59375 1653.753906 C 2111.359375 1710.917969 2014.160156 1741.269531 1920.164062 1770.628906 C 1829.195312 1799.039062 1735.132812 1828.410156 1657.375 1881.882812 C 1580.476562 1934.765625 1522.609375 2007.582031 1461.320312 2084.65625 C 1402.953125 2158.089844 1342.597656 2234.015625 1264.597656 2290.222656 C 1144.464844 2376.808594 1001.441406 2406.433594 868.554688 2409.246094 " fill-opacity="1" fill-rule="nonzero"/></g></g></g></g></svg>