<svg xmlns="http://www.w3.org/2000/svg" xmlns:xlink="http://www.w3.org/1999/xlink" width="3456" zoomAndPan="magnify" viewBox="0 0 2592 3455.999975" height="4608" preserveAspectRatio="xMidYMid meet" version="1.0"><defs><clipPath id="ca82af5f8c"><path d="M 229 85 L 1857 85 L 1857 1306 L 229 1306 Z M 229 85 " clip-rule="nonzero"/></clipPath><clipPath id="7686e4d445"><path d="M 167.3125 94.078125 L 1881.429688 57.820312 L 1911.675781 1487.75 L 197.558594 1524.007812 Z M 167.3125 94.078125 " clip-rule="nonzero"/></clipPath><clipPath id="6eca029271"><path d="M 167.3125 94.078125 L 1881.429688 57.820312 L 1911.675781 1487.75 L 197.558594 1524.007812 Z M 167.3125 94.078125 " clip-rule="nonzero"/></clipPath><clipPath id="93d5a322d2"><path d="M 182 262 L 1839 262 L 1839 1512 L 182 1512 Z M 182 262 " clip-rule="nonzero"/></clipPath><clipPath id="5385c33fdd"><path d="M 167.3125 94.078125 L 1881.429688 57.820312 L 1911.675781 1487.75 L 197.558594 1524.007812 Z M 167.3125 94.078125 " clip-rule="nonzero"/></clipPath><clipPath id="9c925aefd1"><path d="M 167.3125 94.078125 L 1881.429688 57.820312 L 1911.675781 1487.75 L 197.558594 1524.007812 Z M 167.3125 94.078125 " clip-rule="nonzero"/></clipPath><clipPath id="4d793bcb67"><path d="M 171.332031 280.652344 L 1831.09375 245.546875 L 1857.390625 1488.820312 L 197.628906 1523.925781 Z M 171.332031 280.652344 " clip-rule="nonzero"/></clipPath><clipPath id="76d5b5675b"><path d="M 362 869 L 1493 869 L 1493 1840 L 362 1840 Z M 362 869 " clip-rule="nonzero"/></clipPath><clipPath id="1b0270a515"><path d="M 1611.039062 1638.03125 L 408.417969 1926.558594 L 167.65625 923.035156 L 1370.28125 634.507812 Z M 1611.039062 1638.03125 " clip-rule="nonzero"/></clipPath><clipPath id="4d5d7a34de"><path d="M 1611.039062 1638.03125 L 408.417969 1926.558594 L 167.65625 923.035156 L 1370.28125 634.507812 Z M 1611.039062 1638.03125 " clip-rule="nonzero"/></clipPath><clipPath id="983c18200e"><path d="M 345 718 L 1497 718 L 1497 1710 L 345 1710 Z M 345 718 " clip-rule="nonzero"/></clipPath><clipPath id="11605a6fe9"><path d="M 1611.039062 1638.03125 L 408.417969 1926.558594 L 167.65625 923.035156 L 1370.28125 634.507812 Z M 1611.039062 1638.03125 " clip-rule="nonzero"/></clipPath><clipPath id="2ff1a27d21"><path d="M 1611.039062 1638.03125 L 408.417969 1926.558594 L 167.65625 923.035156 L 1370.28125 634.507812 Z M 1611.039062 1638.03125 " clip-rule="nonzero"/></clipPath><clipPath id="1da5832b66"><path d="M 1579.578125 1507.105469 L 414.757812 1786.5625 L 205.425781 914.035156 L 1370.242188 634.578125 Z M 1579.578125 1507.105469 " clip-rule="nonzero"/></clipPath></defs><rect x="-259.2" width="3110.4" fill="#ffffff" y="-345.599998" height="4147.19997" fill-opacity="1"/><rect x="-259.2" width="3110.4" fill="#ffffff" y="-345.599998" height="4147.19997" fill-opacity="1"/><g clip-path="url(#ca82af5f8c)"><g clip-path="url(#7686e4d445)"><g clip-path="url(#6eca029271)"><path fill="#babeb6" d="M 1826.792969 594.292969 C 1800.125 680.546875 1750.199219 761.910156 1675.773438 813.023438 C 1570.375 885.410156 1429.472656 889.90625 1324.113281 962.359375 C 1221.792969 1032.734375 1167.492188 1157.230469 1066.738281 1229.84375 C 957.324219 1308.695312 810.585938 1316.484375 677.515625 1294.496094 C 545.351562 1272.644531 468.839844 1172.925781 481.503906 1071.910156 C 502.867188 901.527344 253.277344 800.007812 230.910156 629.757812 C 215.554688 512.902344 304.816406 392.105469 421.03125 372.460938 C 493.292969 360.25 566.34375 382.828125 639.328125 389.503906 C 712.3125 396.171875 797.253906 380.140625 834.285156 316.890625 C 850.363281 289.4375 854.910156 256.925781 865.898438 227.066406 C 888.636719 165.269531 940.980469 115.136719 1003.699219 95.085938 C 1066.410156 75.035156 1138.128906 85.503906 1192.496094 122.644531 C 1227.890625 146.820312 1255.292969 180.816406 1287.878906 208.640625 C 1320.476562 236.46875 1362.203125 258.871094 1404.550781 252.285156 C 1457.75 244.023438 1493.160156 194.53125 1538.253906 165.125 C 1598.394531 125.894531 1681.089844 124.542969 1742.484375 161.769531 C 1885.398438 248.417969 1868.472656 459.511719 1826.792969 594.292969 " fill-opacity="1" fill-rule="nonzero"/></g></g></g><g clip-path="url(#93d5a322d2)"><g clip-path="url(#5385c33fdd)"><g clip-path="url(#9c925aefd1)"><g clip-path="url(#4d793bcb67)"><path fill="#ffffff" d="M 427.335938 575.457031 C 415.1875 575.714844 403.101562 576.734375 391.023438 578.773438 C 281.664062 597.253906 198.414062 709.929688 212.859375 819.890625 C 222.660156 894.476562 281.097656 957.605469 337.617188 1018.660156 C 405.519531 1092.023438 475.734375 1167.875 463.46875 1265.738281 C 451.136719 1364.0625 530.238281 1452.824219 647.460938 1472.207031 C 755.882812 1490.140625 909.550781 1493.910156 1025.839844 1410.109375 C 1073.652344 1375.652344 1111.890625 1327.542969 1148.878906 1281.015625 C 1188.546875 1231.117188 1229.566406 1179.511719 1283.476562 1142.433594 C 1337.988281 1104.953125 1401.683594 1085.058594 1463.28125 1065.820312 C 1522.761719 1047.242188 1584.277344 1028.03125 1635.144531 993.097656 C 1700.738281 948.050781 1752.363281 873.097656 1780.527344 782.03125 C 1824.800781 638.847656 1830.941406 444.027344 1702.542969 366.183594 C 1645.503906 331.59375 1569.628906 332.839844 1513.757812 369.285156 C 1499.484375 378.585938 1486.269531 390 1472.273438 402.074219 C 1443.554688 426.867188 1413.867188 452.496094 1374.351562 458.628906 C 1323.066406 466.613281 1276.285156 437.503906 1246.050781 411.691406 C 1232.953125 400.507812 1220.652344 388.355469 1208.769531 376.59375 C 1190.074219 358.109375 1172.417969 340.652344 1151.898438 326.636719 C 1101.421875 292.152344 1033.902344 282.308594 975.6875 300.921875 C 917.46875 319.53125 868.191406 366.730469 847.085938 424.089844 C 843.355469 434.222656 840.417969 444.632812 837.3125 455.65625 C 831.578125 475.976562 825.652344 496.980469 814.375 516.242188 C 779.992188 574.972656 701.90625 604.75 605.585938 595.957031 C 582.148438 593.820312 558.574219 590.042969 535.773438 586.40625 C 498.445312 580.433594 462.648438 574.710938 427.335938 575.457031 Z M 783.546875 1511.53125 C 732.945312 1512.601562 684.601562 1507.738281 642.730469 1500.816406 C 576.878906 1489.929688 519.691406 1459.191406 481.710938 1414.265625 C 444.59375 1370.375 427.902344 1316.347656 434.699219 1262.125 C 445.289062 1177.660156 382.652344 1109.992188 316.339844 1038.355469 C 256.742188 973.96875 195.117188 907.398438 184.117188 823.671875 C 167.730469 698.945312 262.152344 571.152344 386.1875 550.183594 C 438.085938 541.421875 490.078125 549.734375 540.347656 557.773438 C 562.675781 561.339844 585.761719 565.03125 608.226562 567.078125 C 640.027344 569.992188 747.039062 573.851562 789.359375 501.589844 C 798.757812 485.535156 803.929688 467.199219 809.40625 447.785156 C 812.53125 436.707031 815.757812 425.265625 819.875 414.082031 C 844 348.527344 900.316406 294.574219 966.859375 273.304688 C 1033.390625 252.027344 1110.558594 263.292969 1168.257812 302.691406 C 1190.949219 318.195312 1210.371094 337.402344 1229.152344 355.980469 C 1240.675781 367.363281 1252.582031 379.140625 1264.875 389.636719 C 1290.488281 411.503906 1329.496094 436.269531 1369.902344 429.980469 C 1401.210938 425.125 1426.519531 403.269531 1453.328125 380.132812 C 1467.429688 367.957031 1482.007812 355.371094 1497.917969 345 C 1562.933594 302.59375 1651.203125 301.148438 1717.582031 341.394531 C 1784.917969 382.210938 1825.8125 454.523438 1835.859375 550.492188 C 1846.117188 648.464844 1822.945312 742.976562 1808.226562 790.597656 C 1778.140625 887.867188 1722.503906 968.277344 1651.566406 1016.992188 C 1597.082031 1054.410156 1533.453125 1074.277344 1471.921875 1093.5 C 1412.375 1112.09375 1350.804688 1131.320312 1299.902344 1166.324219 C 1249.566406 1200.941406 1211.6875 1248.605469 1171.566406 1299.058594 C 1133.359375 1347.128906 1093.851562 1396.828125 1042.792969 1433.621094 C 964.15625 1490.300781 870.535156 1509.691406 783.546875 1511.53125 " fill-opacity="1" fill-rule="nonzero"/></g></g></g></g><g clip-path="url(#76d5b5675b)"><g clip-path="url(#1b0270a515)"><g clip-path="url(#4d5d7a34de)"><path fill="#004aad" d="M 364.273438 1540.019531 C 369.835938 1475.117188 392.550781 1410.085938 437.179688 1362.628906 C 500.386719 1295.417969 599.039062 1270.628906 662.199219 1203.375 C 723.542969 1138.054688 742.71875 1041.949219 802.613281 975.292969 C 867.652344 902.90625 969.917969 874.894531 1067.109375 869.980469 C 1163.648438 865.105469 1232.894531 923.667969 1239.464844 996.832031 C 1250.550781 1120.238281 1442.101562 1153.511719 1484 1270.113281 C 1512.753906 1350.144531 1468.359375 1449.007812 1389.4375 1480.691406 C 1340.363281 1500.394531 1285.394531 1495.683594 1232.914062 1502.175781 C 1180.433594 1508.679688 1123.003906 1533.015625 1106.601562 1583.292969 C 1099.480469 1605.113281 1101.261719 1628.734375 1098.097656 1651.472656 C 1091.550781 1698.53125 1062.339844 1741.910156 1021.199219 1765.671875 C 980.058594 1789.433594 927.890625 1793.054688 883.859375 1775.214844 C 855.195312 1763.601562 830.65625 1743.839844 803.410156 1729.21875 C 776.160156 1714.601562 743.304688 1705.210938 714.453125 1716.351562 C 678.214844 1730.34375 660.84375 1770.667969 633.5625 1798.324219 C 597.183594 1835.210938 539.089844 1848.855469 490.089844 1832.03125 C 376.03125 1792.871094 355.570312 1641.445312 364.273438 1540.019531 " fill-opacity="1" fill-rule="nonzero"/></g></g></g><g clip-path="url(#983c18200e)"><g clip-path="url(#11605a6fe9)"><g clip-path="url(#2ff1a27d21)"><g clip-path="url(#1da5832b66)"><path fill="#ffffff" d="M 1353.839844 1338.542969 C 1362.367188 1336.496094 1370.730469 1333.921875 1378.933594 1330.628906 C 1453.199219 1300.820312 1494.605469 1208.601562 1467.546875 1133.289062 C 1449.191406 1082.210938 1398.300781 1046.667969 1349.085938 1012.296875 C 1289.953125 970.992188 1228.808594 928.289062 1222.4375 857.40625 C 1216.042969 786.191406 1146.652344 735.75 1061.027344 740.074219 C 981.835938 744.070312 872.914062 764.992188 803.785156 841.921875 C 775.363281 873.550781 755.785156 913.335938 736.847656 951.816406 C 716.539062 993.085938 695.535156 1035.765625 663.21875 1070.179688 C 630.535156 1104.96875 588.679688 1128.773438 548.203125 1151.789062 C 509.117188 1174.015625 468.695312 1196.996094 438.191406 1229.433594 C 398.859375 1271.261719 373.960938 1332.03125 368.082031 1400.558594 C 358.839844 1508.300781 384.410156 1646.601562 486.878906 1681.78125 C 532.402344 1697.414062 585.707031 1684.894531 619.507812 1650.621094 C 628.140625 1641.875 635.707031 1631.796875 643.722656 1621.136719 C 660.164062 1599.25 677.164062 1576.625 704.082031 1566.238281 C 739.015625 1552.738281 776.464844 1566.082031 801.742188 1579.644531 C 812.691406 1585.515625 823.230469 1592.195312 833.414062 1598.667969 C 849.433594 1608.828125 864.558594 1618.429688 881.175781 1625.160156 C 922.058594 1641.726562 971.171875 1638.304688 1009.359375 1616.25 C 1047.550781 1594.195312 1075.050781 1553.355469 1081.128906 1509.675781 C 1082.203125 1501.960938 1082.675781 1494.167969 1083.175781 1485.921875 C 1084.097656 1470.714844 1085.054688 1454.996094 1090.050781 1439.683594 C 1105.277344 1393 1155.761719 1360.023438 1225.019531 1351.441406 C 1241.875 1349.351562 1259.074219 1348.398438 1275.707031 1347.464844 C 1302.945312 1345.945312 1329.058594 1344.488281 1353.839844 1338.542969 Z M 959.046875 733.230469 C 994.558594 724.710938 1029.390625 720.722656 1059.976562 719.175781 C 1108.070312 716.746094 1153.109375 729.644531 1186.78125 755.488281 C 1219.6875 780.738281 1239.746094 816.269531 1243.277344 855.542969 C 1248.769531 916.714844 1303.316406 954.8125 1361.0625 995.144531 C 1412.960938 1031.394531 1466.625 1068.871094 1487.230469 1126.214844 C 1517.925781 1211.636719 1470.964844 1316.226562 1386.730469 1350.046875 C 1351.484375 1364.183594 1313.554688 1366.304688 1276.875 1368.351562 C 1260.585938 1369.265625 1243.742188 1370.203125 1227.59375 1372.207031 C 1204.722656 1375.035156 1128.683594 1388.734375 1109.933594 1446.175781 C 1105.773438 1458.9375 1104.941406 1472.660156 1104.058594 1487.1875 C 1103.554688 1495.476562 1103.035156 1504.039062 1101.847656 1512.554688 C 1094.902344 1562.476562 1063.472656 1609.160156 1019.820312 1634.367188 C 976.179688 1659.578125 920.042969 1663.476562 873.316406 1644.554688 C 854.941406 1637.105469 838.296875 1626.542969 822.207031 1616.328125 C 812.335938 1610.070312 802.132812 1603.59375 791.855469 1598.078125 C 770.441406 1586.59375 739.136719 1575.117188 711.617188 1585.753906 C 690.289062 1593.980469 675.796875 1613.273438 660.445312 1633.699219 C 652.371094 1644.449219 644.023438 1655.5625 634.402344 1665.316406 C 595.066406 1705.1875 533.058594 1719.753906 480.082031 1701.566406 C 426.339844 1683.121094 386.414062 1638.414062 364.601562 1572.292969 C 342.335938 1504.792969 344.167969 1434.601562 347.238281 1398.769531 C 353.523438 1325.570312 380.410156 1260.339844 422.949219 1215.109375 C 455.621094 1180.367188 497.433594 1156.59375 537.863281 1133.601562 C 576.992188 1111.351562 617.453125 1088.347656 647.96875 1055.855469 C 678.148438 1023.726562 697.539062 984.308594 718.082031 942.578125 C 737.644531 902.824219 757.871094 861.722656 788.222656 827.945312 C 834.96875 775.914062 898 747.875 959.046875 733.230469 " fill-opacity="1" fill-rule="nonzero"/></g></g></g></g></svg>