<svg xmlns="http://www.w3.org/2000/svg" xmlns:xlink="http://www.w3.org/1999/xlink" width="3456" zoomAndPan="magnify" viewBox="0 0 2592 3455.999975" height="4608" preserveAspectRatio="xMidYMid meet" version="1.0"><defs><clipPath id="1c6fd39f84"><path d="M 485 989 L 2113 989 L 2113 2210 L 485 2210 Z M 485 989 " clip-rule="nonzero"/></clipPath><clipPath id="97cfa72ee7"><path d="M 423.804688 998.5 L 2137.921875 962.242188 L 2168.167969 2392.171875 L 454.050781 2428.429688 Z M 423.804688 998.5 " clip-rule="nonzero"/></clipPath><clipPath id="aa8d05c9a2"><path d="M 423.804688 998.5 L 2137.921875 962.242188 L 2168.167969 2392.171875 L 454.050781 2428.429688 Z M 423.804688 998.5 " clip-rule="nonzero"/></clipPath><clipPath id="4912523c1b"><path d="M 438 1167 L 2095 1167 L 2095 2417 L 438 2417 Z M 438 1167 " clip-rule="nonzero"/></clipPath><clipPath id="a6d7eeb6ec"><path d="M 423.804688 998.5 L 2137.921875 962.242188 L 2168.167969 2392.171875 L 454.050781 2428.429688 Z M 423.804688 998.5 " clip-rule="nonzero"/></clipPath><clipPath id="0b67ae681f"><path d="M 423.804688 998.5 L 2137.921875 962.242188 L 2168.167969 2392.171875 L 454.050781 2428.429688 Z M 423.804688 998.5 " clip-rule="nonzero"/></clipPath><clipPath id="e5684c5cd6"><path d="M 427.824219 1185.074219 L 2087.585938 1149.964844 L 2113.882812 2393.238281 L 454.121094 2428.347656 Z M 427.824219 1185.074219 " clip-rule="nonzero"/></clipPath><clipPath id="dba331aa2f"><path d="M 41 579 L 2404 579 L 2404 2576 L 41 2576 Z M 41 579 " clip-rule="nonzero"/></clipPath><clipPath id="a371d48a82"><path d="M -192.148438 956.132812 L 2322.355469 402.40625 L 2784.304688 2500.144531 L 269.800781 3053.871094 Z M -192.148438 956.132812 " clip-rule="nonzero"/></clipPath><clipPath id="6818a6fe98"><path d="M -192.148438 956.132812 L 2322.355469 402.40625 L 2784.304688 2500.144531 L 269.800781 3053.871094 Z M -192.148438 956.132812 " clip-rule="nonzero"/></clipPath><clipPath id="dc1f814a32"><path d="M 28 849 L 2434 849 L 2434 2890 L 28 2890 Z M 28 849 " clip-rule="nonzero"/></clipPath><clipPath id="0c18ad3e65"><path d="M -192.148438 956.132812 L 2322.355469 402.40625 L 2784.304688 2500.144531 L 269.800781 3053.871094 Z M -192.148438 956.132812 " clip-rule="nonzero"/></clipPath><clipPath id="0fb1764790"><path d="M -192.148438 956.132812 L 2322.355469 402.40625 L 2784.304688 2500.144531 L 269.800781 3053.871094 Z M -192.148438 956.132812 " clip-rule="nonzero"/></clipPath><clipPath id="a51340f167"><path d="M -131.761719 1229.785156 L 2302.863281 693.652344 L 2704.464844 2517.351562 L 269.839844 3053.488281 Z M -131.761719 1229.785156 " clip-rule="nonzero"/></clipPath></defs><rect x="-259.2" width="3110.4" fill="#ffffff" y="-345.599998" height="4147.19997" fill-opacity="1"/><rect x="-259.2" width="3110.4" fill="#ffffff" y="-345.599998" height="4147.19997" fill-opacity="1"/><g clip-path="url(#1c6fd39f84)"><g clip-path="url(#97cfa72ee7)"><g clip-path="url(#aa8d05c9a2)"><path fill="#babeb6" d="M 2083.285156 1498.714844 C 2056.621094 1584.964844 2006.691406 1666.332031 1932.265625 1717.445312 C 1826.867188 1789.832031 1685.964844 1794.328125 1580.605469 1866.78125 C 1478.285156 1937.15625 1423.984375 2061.652344 1323.230469 2134.265625 C 1213.816406 2213.117188 1067.078125 2220.90625 934.007812 2198.917969 C 801.84375 2177.066406 725.332031 2077.347656 737.996094 1976.328125 C 759.359375 1805.949219 509.769531 1704.429688 487.402344 1534.179688 C 472.046875 1417.324219 561.308594 1296.527344 677.523438 1276.882812 C 749.785156 1264.667969 822.835938 1287.25 895.820312 1293.925781 C 968.804688 1300.589844 1053.746094 1284.5625 1090.777344 1221.3125 C 1106.859375 1193.859375 1111.402344 1161.34375 1122.390625 1131.488281 C 1145.128906 1069.691406 1197.472656 1019.558594 1260.191406 999.507812 C 1322.902344 979.457031 1394.621094 989.925781 1448.988281 1027.066406 C 1484.382812 1051.242188 1511.785156 1085.234375 1544.371094 1113.0625 C 1576.96875 1140.890625 1618.695312 1163.292969 1661.046875 1156.707031 C 1714.242188 1148.441406 1749.652344 1098.953125 1794.746094 1069.542969 C 1854.886719 1030.316406 1937.582031 1028.960938 1998.976562 1066.191406 C 2141.890625 1152.839844 2124.964844 1363.929688 2083.285156 1498.714844 " fill-opacity="1" fill-rule="nonzero"/></g></g></g><g clip-path="url(#4912523c1b)"><g clip-path="url(#a6d7eeb6ec)"><g clip-path="url(#0b67ae681f)"><g clip-path="url(#e5684c5cd6)"><path fill="#ffffff" d="M 683.828125 1479.878906 C 671.679688 1480.132812 659.59375 1481.15625 647.515625 1483.195312 C 538.15625 1501.675781 454.90625 1614.351562 469.351562 1724.3125 C 479.152344 1798.894531 537.589844 1862.027344 594.109375 1923.078125 C 662.011719 1996.441406 732.226562 2072.292969 719.960938 2170.15625 C 707.632812 2268.484375 786.730469 2357.246094 903.953125 2376.628906 C 1012.375 2394.558594 1166.042969 2398.332031 1282.332031 2314.53125 C 1330.144531 2280.074219 1368.382812 2231.964844 1405.371094 2185.4375 C 1445.039062 2135.539062 1486.058594 2083.933594 1539.96875 2046.855469 C 1594.480469 2009.375 1658.175781 1989.476562 1719.773438 1970.242188 C 1779.253906 1951.664062 1840.769531 1932.453125 1891.636719 1897.519531 C 1957.230469 1852.472656 2008.855469 1777.519531 2037.019531 1686.453125 C 2081.292969 1543.269531 2087.433594 1348.445312 1959.035156 1270.601562 C 1901.996094 1236.015625 1826.125 1237.257812 1770.25 1273.707031 C 1755.976562 1283.007812 1742.761719 1294.421875 1728.765625 1306.496094 C 1700.046875 1331.289062 1670.359375 1356.917969 1630.84375 1363.050781 C 1579.558594 1371.035156 1532.777344 1341.925781 1502.542969 1316.109375 C 1489.445312 1304.929688 1477.144531 1292.777344 1465.261719 1281.015625 C 1446.566406 1262.53125 1428.910156 1245.074219 1408.390625 1231.054688 C 1357.914062 1196.574219 1290.394531 1186.730469 1232.179688 1205.339844 C 1173.960938 1223.953125 1124.683594 1271.152344 1103.578125 1328.511719 C 1099.847656 1338.644531 1096.910156 1349.050781 1093.804688 1360.078125 C 1088.070312 1380.394531 1082.144531 1401.398438 1070.867188 1420.664062 C 1036.484375 1479.394531 958.398438 1509.171875 862.078125 1500.375 C 838.640625 1498.238281 815.066406 1494.464844 792.265625 1490.824219 C 754.9375 1484.851562 719.140625 1479.128906 683.828125 1479.878906 Z M 1040.039062 2415.953125 C 989.4375 2417.023438 941.09375 2412.160156 899.222656 2405.238281 C 833.371094 2394.351562 776.1875 2363.613281 738.203125 2318.6875 C 701.085938 2274.796875 684.394531 2220.765625 691.191406 2166.542969 C 701.78125 2082.082031 639.144531 2014.414062 572.832031 1942.773438 C 513.234375 1878.390625 451.609375 1811.820312 440.609375 1728.09375 C 424.222656 1603.363281 518.644531 1475.574219 642.679688 1454.605469 C 694.578125 1445.84375 746.570312 1454.15625 796.839844 1462.195312 C 819.167969 1465.761719 842.253906 1469.453125 864.71875 1471.5 C 896.519531 1474.414062 1003.53125 1478.273438 1045.851562 1406.011719 C 1055.25 1389.957031 1060.421875 1371.621094 1065.898438 1352.207031 C 1069.023438 1341.128906 1072.25 1329.6875 1076.367188 1318.503906 C 1100.492188 1252.945312 1156.808594 1198.992188 1223.351562 1177.726562 C 1289.882812 1156.449219 1367.054688 1167.714844 1424.75 1207.113281 C 1447.441406 1222.617188 1466.863281 1241.824219 1485.644531 1260.402344 C 1497.167969 1271.78125 1509.074219 1283.5625 1521.367188 1294.058594 C 1546.980469 1315.925781 1585.988281 1340.691406 1626.394531 1334.402344 C 1657.703125 1329.542969 1683.011719 1307.691406 1709.820312 1284.554688 C 1723.921875 1272.378906 1738.5 1259.792969 1754.410156 1249.417969 C 1819.425781 1207.015625 1907.695312 1205.570312 1974.074219 1245.816406 C 2041.410156 1286.632812 2082.304688 1358.945312 2092.351562 1454.914062 C 2102.609375 1552.886719 2079.4375 1647.398438 2064.71875 1695.015625 C 2034.632812 1792.289062 1978.996094 1872.699219 1908.058594 1921.414062 C 1853.574219 1958.832031 1789.945312 1978.699219 1728.414062 1997.917969 C 1668.867188 2016.515625 1607.296875 2035.742188 1556.394531 2070.746094 C 1506.058594 2105.363281 1468.179688 2153.027344 1428.058594 2203.480469 C 1389.851562 2251.546875 1350.34375 2301.25 1299.285156 2338.042969 C 1220.648438 2394.722656 1127.027344 2414.113281 1040.039062 2415.953125 " fill-opacity="1" fill-rule="nonzero"/></g></g></g></g><g clip-path="url(#dba331aa2f)"><g clip-path="url(#a371d48a82)"><g clip-path="url(#6818a6fe98)"><path fill="#004aad" d="M 2398.320312 1208.617188 C 2384.210938 1343.457031 2334.414062 1477.882812 2239.703125 1574.894531 C 2105.570312 1712.285156 1899.328125 1760.027344 1765.28125 1897.507812 C 1635.097656 2031.035156 1591.449219 2230.265625 1464.230469 2366.632812 C 1326.074219 2514.71875 1112.195312 2569.023438 909.765625 2575.46875 C 708.699219 2581.855469 566.894531 2457.296875 556.066406 2304.800781 C 537.808594 2047.589844 140.527344 1970.894531 57.886719 1726.636719 C 1.167969 1558.988281 97.390625 1355 262.84375 1292.148438 C 365.726562 1253.0625 479.921875 1265.003906 589.375 1253.539062 C 698.832031 1242.054688 819.277344 1193.652344 855.363281 1089.675781 C 871.035156 1044.542969 868.246094 995.320312 875.714844 948.132812 C 891.175781 850.46875 953.644531 761.347656 1040.175781 713.503906 C 1126.703125 665.667969 1235.398438 660.15625 1326.324219 699 C 1385.515625 724.277344 1435.804688 766.355469 1491.925781 797.832031 C 1548.066406 829.3125 1616.066406 850.128906 1676.527344 828.074219 C 1752.476562 800.371094 1790.191406 717.136719 1848.035156 660.65625 C 1925.171875 585.320312 2046.589844 559.1875 2147.890625 596.109375 C 2383.699219 682.03125 2420.375 997.917969 2398.320312 1208.617188 " fill-opacity="1" fill-rule="nonzero"/></g></g></g><g clip-path="url(#dc1f814a32)"><g clip-path="url(#0c18ad3e65)"><g clip-path="url(#0fb1764790)"><g clip-path="url(#a51340f167)"><path fill="#ffffff" d="M 331.382812 1589.320312 C 313.5625 1593.246094 296.054688 1598.277344 278.859375 1604.808594 C 123.164062 1663.945312 33.421875 1854.21875 86.792969 2011.980469 C 123 2118.980469 227.503906 2194.917969 328.574219 2268.355469 C 450.011719 2356.605469 575.574219 2447.84375 586.070312 2595.578125 C 596.605469 2744.011719 739.027344 2851.679688 917.359375 2846.015625 C 1082.300781 2840.785156 1309.761719 2801.488281 1456.597656 2644.105469 C 1516.96875 2579.398438 1559.253906 2497.371094 1600.15625 2418.039062 C 1644.023438 2332.960938 1689.386719 2244.972656 1757.976562 2174.625 C 1827.339844 2103.5 1915.355469 2055.601562 2000.472656 2009.289062 C 2082.671875 1964.5625 2167.675781 1918.3125 2232.410156 1852.007812 C 2315.882812 1766.507812 2370.054688 1641.027344 2384.960938 1498.667969 C 2408.382812 1274.832031 2360.570312 986.0625 2148.71875 908.871094 C 2054.605469 874.570312 1943.203125 898.546875 1871.535156 968.539062 C 1853.226562 986.40625 1837.089844 1007.082031 1819.996094 1028.949219 C 1784.933594 1073.847656 1748.679688 1120.265625 1692.265625 1140.832031 C 1619.046875 1167.566406 1541.644531 1138.339844 1489.574219 1109.136719 C 1467.019531 1096.488281 1445.347656 1082.179688 1424.414062 1068.320312 C 1391.480469 1046.550781 1360.375 1025.988281 1326.0625 1011.328125 C 1241.640625 975.265625 1139.3125 980.476562 1058.992188 1024.878906 C 978.664062 1069.285156 919.851562 1153.195312 905.503906 1243.847656 C 902.96875 1259.859375 901.679688 1276.050781 900.324219 1293.195312 C 897.808594 1324.800781 895.207031 1357.46875 884.21875 1389.136719 C 850.710938 1485.683594 744.382812 1552.335938 599.933594 1567.492188 C 564.785156 1571.1875 528.957031 1572.503906 494.308594 1573.800781 C 437.578125 1575.898438 383.179688 1577.914062 331.382812 1589.320312 Z M 1129.292969 2864.222656 C 1055.070312 2880.570312 982.433594 2887.511719 918.738281 2889.535156 C 818.5625 2892.71875 725.355469 2864.128906 656.292969 2809.042969 C 588.808594 2755.21875 548.453125 2680.507812 542.636719 2598.652344 C 533.589844 2471.148438 421.570312 2389.75 302.980469 2303.578125 C 196.402344 2226.132812 86.195312 2146.058594 45.554688 2025.933594 C -14.984375 1846.992188 86.804688 1631.191406 263.394531 1564.105469 C 337.28125 1536.054688 416.292969 1533.121094 492.691406 1530.289062 C 526.621094 1529.027344 561.703125 1527.726562 595.390625 1524.1875 C 643.089844 1519.195312 801.84375 1493.648438 843.089844 1374.855469 C 852.25 1348.460938 854.519531 1319.941406 856.921875 1289.746094 C 858.289062 1272.515625 859.703125 1254.722656 862.503906 1237.046875 C 878.902344 1133.4375 946.117188 1037.527344 1037.929688 986.777344 C 1129.71875 936.019531 1246.679688 930.089844 1343.171875 971.285156 C 1381.117188 987.5 1415.335938 1010.121094 1448.421875 1032.007812 C 1468.714844 1045.410156 1489.695312 1059.285156 1510.867188 1071.160156 C 1554.976562 1095.894531 1619.667969 1120.992188 1677.347656 1099.933594 C 1722.046875 1083.640625 1752.949219 1044.0625 1785.6875 1002.160156 C 1802.90625 980.105469 1820.707031 957.308594 1841.113281 937.390625 C 1924.511719 855.953125 2054.109375 828.058594 2163.632812 867.96875 C 2274.738281 908.441406 2356.082031 1003.023438 2398.890625 1141.457031 C 2442.59375 1282.777344 2436.046875 1428.757812 2428.257812 1503.199219 C 2412.332031 1655.261719 2353.847656 1789.945312 2263.570312 1882.410156 C 2194.234375 1953.429688 2106.308594 2001.269531 2021.285156 2047.535156 C 1938.996094 2092.308594 1853.910156 2138.601562 1789.148438 2205.019531 C 1725.105469 2270.699219 1683.214844 2351.96875 1638.847656 2437.996094 C 1596.597656 2519.953125 1552.902344 2604.695312 1488.433594 2673.792969 C 1389.140625 2780.234375 1256.890625 2836.125 1129.292969 2864.222656 " fill-opacity="1" fill-rule="nonzero"/></g></g></g></g></svg>