<svg xmlns="http://www.w3.org/2000/svg" xmlns:xlink="http://www.w3.org/1999/xlink" width="3456" zoomAndPan="magnify" viewBox="0 0 2592 3455.999975" height="4608" preserveAspectRatio="xMidYMid meet" version="1.0"><defs><clipPath id="db8b1d5b8d"><path d="M 221 87 L 2077 87 L 2077 1477 L 221 1477 Z M 221 87 " clip-rule="nonzero"/></clipPath><clipPath id="0f43f9bf58"><path d="M 152.75 94.667969 L 2106.171875 59.070312 L 2135.867188 1688.550781 L 182.441406 1724.148438 Z M 152.75 94.667969 " clip-rule="nonzero"/></clipPath><clipPath id="8d2df0f34e"><path d="M 152.75 94.667969 L 2106.171875 59.070312 L 2135.867188 1688.550781 L 182.441406 1724.148438 Z M 152.75 94.667969 " clip-rule="nonzero"/></clipPath><clipPath id="89a153a177"><path d="M 167 289 L 2056 289 L 2056 1713 L 167 1713 Z M 167 289 " clip-rule="nonzero"/></clipPath><clipPath id="db620b5b68"><path d="M 152.75 94.667969 L 2106.171875 59.070312 L 2135.867188 1688.550781 L 182.441406 1724.148438 Z M 152.75 94.667969 " clip-rule="nonzero"/></clipPath><clipPath id="8473fd06c6"><path d="M 152.75 94.667969 L 2106.171875 59.070312 L 2135.867188 1688.550781 L 182.441406 1724.148438 Z M 152.75 94.667969 " clip-rule="nonzero"/></clipPath><clipPath id="da55d2318f"><path d="M 156.707031 307.3125 L 2048.367188 272.839844 L 2074.191406 1689.824219 L 182.527344 1724.296875 Z M 156.707031 307.3125 " clip-rule="nonzero"/></clipPath><clipPath id="063b559ac3"><path d="M 26.503906 781.089844 L 836.492188 781.089844 L 836.492188 1387.539062 L 26.503906 1387.539062 Z M 26.503906 781.089844 " clip-rule="nonzero"/></clipPath></defs><rect x="-259.2" width="3110.4" fill="#ffffff" y="-345.599998" height="4147.19997" fill-opacity="1"/><rect x="-259.2" width="3110.4" fill="#ffffff" y="-345.599998" height="4147.19997" fill-opacity="1"/><g clip-path="url(#db8b1d5b8d)"><g clip-path="url(#0f43f9bf58)"><g clip-path="url(#8d2df0f34e)"><path fill="#004aad" d="M 2042.304688 670.273438 C 2011.625 768.484375 1954.457031 861.046875 1869.46875 919.046875 C 1749.105469 1001.191406 1588.511719 1005.84375 1468.199219 1088.066406 C 1351.351562 1167.929688 1289.054688 1309.628906 1173.988281 1392.046875 C 1049.03125 1481.542969 881.773438 1489.933594 730.195312 1464.425781 C 579.644531 1439.082031 492.78125 1325.183594 507.554688 1210.101562 C 532.46875 1015.996094 248.363281 899.46875 223.4375 705.367188 C 206.332031 572.144531 308.457031 434.773438 440.96875 412.777344 C 523.363281 399.097656 606.539062 425.074219 689.691406 432.925781 C 772.847656 440.765625 869.707031 422.785156 912.121094 350.824219 C 930.535156 319.589844 935.828125 282.550781 948.449219 248.558594 C 974.570312 178.210938 1034.386719 121.25 1105.929688 98.605469 C 1177.46875 75.96875 1259.164062 88.136719 1321.003906 130.648438 C 1361.257812 158.316406 1392.375 197.148438 1429.421875 228.96875 C 1466.476562 260.792969 1513.953125 286.460938 1562.238281 279.101562 C 1622.894531 269.859375 1663.414062 213.578125 1714.90625 180.210938 C 1783.574219 135.707031 1877.820312 134.4375 1947.664062 177.070312 C 2110.25 276.296875 2090.257812 516.808594 2042.304688 670.273438 " fill-opacity="1" fill-rule="nonzero"/></g></g></g><g clip-path="url(#89a153a177)"><g clip-path="url(#db620b5b68)"><g clip-path="url(#8473fd06c6)"><g clip-path="url(#da55d2318f)"><path fill="#ffffff" d="M 447.476562 644.136719 C 433.632812 644.390625 419.855469 645.515625 406.082031 647.796875 C 281.390625 668.496094 186.136719 796.628906 202.234375 921.996094 C 213.15625 1007.023438 279.542969 1079.167969 343.75 1148.933594 C 420.890625 1232.769531 500.65625 1319.449219 486.351562 1430.9375 C 471.972656 1542.953125 561.820312 1644.375 695.351562 1666.855469 C 818.855469 1687.652344 993.96875 1692.464844 1126.777344 1597.347656 C 1181.378906 1558.238281 1225.121094 1503.539062 1267.429688 1450.636719 C 1312.800781 1393.902344 1359.722656 1335.230469 1421.28125 1293.152344 C 1483.535156 1250.617188 1556.191406 1228.15625 1626.453125 1206.4375 C 1694.304688 1185.464844 1764.472656 1163.777344 1822.5625 1124.136719 C 1897.464844 1073.015625 1956.550781 987.765625 1988.953125 884.078125 C 2039.882812 721.046875 2047.53125 499.039062 1901.464844 409.894531 C 1836.578125 370.289062 1750.101562 371.453125 1686.304688 412.800781 C 1670.007812 423.355469 1654.90625 436.320312 1638.917969 450.03125 C 1606.105469 478.1875 1572.1875 507.300781 1527.132812 514.15625 C 1468.65625 523.085938 1415.441406 489.753906 1381.074219 460.234375 C 1366.183594 447.449219 1352.203125 433.554688 1338.703125 420.113281 C 1317.457031 398.988281 1297.390625 379.03125 1274.054688 362.988281 C 1216.644531 323.519531 1139.726562 312.078125 1073.324219 333.09375 C 1006.910156 354.109375 950.59375 407.734375 926.347656 473.035156 C 922.066406 484.570312 918.683594 496.421875 915.109375 508.976562 C 908.503906 532.113281 901.679688 556.03125 888.761719 577.949219 C 849.382812 644.765625 760.296875 678.441406 650.550781 668.09375 C 623.847656 665.582031 596.996094 661.199219 571.019531 656.976562 C 528.5 650.046875 487.722656 643.40625 447.476562 644.136719 Z M 850.308594 1712.128906 C 792.640625 1713.179688 737.558594 1707.472656 689.863281 1699.445312 C 614.855469 1686.816406 549.78125 1651.59375 506.644531 1600.269531 C 464.492188 1550.125 445.652344 1488.496094 453.578125 1426.722656 C 465.929688 1330.503906 394.769531 1253.175781 319.433594 1171.308594 C 251.730469 1097.734375 181.71875 1021.664062 169.460938 926.203125 C 151.203125 784.003906 259.242188 638.683594 400.667969 615.199219 C 459.839844 605.390625 519.066406 615.035156 576.332031 624.363281 C 601.765625 628.5 628.0625 632.785156 653.65625 635.195312 C 689.890625 638.621094 811.832031 643.378906 860.300781 561.167969 C 871.066406 542.898438 877.023438 522.019531 883.332031 499.914062 C 886.929688 487.300781 890.644531 474.273438 895.375 461.539062 C 923.082031 386.90625 987.449219 325.609375 1063.355469 301.59375 C 1139.246094 277.566406 1227.15625 290.664062 1292.78125 335.757812 C 1318.585938 353.5 1340.660156 375.453125 1362 396.6875 C 1375.09375 409.699219 1388.625 423.160156 1402.601562 435.164062 C 1431.714844 460.171875 1476.089844 488.527344 1522.15625 481.492188 C 1557.851562 476.0625 1586.769531 451.238281 1617.402344 424.964844 C 1633.511719 411.132812 1650.167969 396.835938 1668.332031 385.070312 C 1742.574219 336.960938 1843.171875 335.609375 1918.6875 381.695312 C 1995.289062 428.4375 2041.652344 510.984375 2052.785156 620.390625 C 2064.148438 732.078125 2037.425781 839.710938 2020.488281 893.929688 C 1985.878906 1004.683594 1922.203125 1096.136719 1841.195312 1151.417969 C 1778.976562 1193.882812 1706.398438 1216.3125 1636.210938 1238.011719 C 1568.285156 1259.003906 1498.050781 1280.710938 1439.925781 1320.433594 C 1382.445312 1359.714844 1339.113281 1413.910156 1293.226562 1471.273438 C 1249.523438 1525.929688 1204.328125 1582.4375 1146.019531 1624.199219 C 1056.210938 1688.53125 949.449219 1710.320312 850.308594 1712.128906 " fill-opacity="1" fill-rule="nonzero"/></g></g></g></g><path fill="#babeb6" d="M 32.199219 1217.464844 C 46.097656 1175.667969 71.292969 1136.492188 108.121094 1112.328125 C 160.285156 1078.105469 229.0625 1077.367188 281.203125 1043.109375 C 331.839844 1009.835938 359.613281 949.667969 409.507812 915.289062 C 463.695312 877.953125 535.355469 875.667969 600.039062 887.765625 C 664.285156 899.789062 700.578125 949.222656 693.355469 998.367188 C 681.175781 1081.257812 801.878906 1133.351562 811.035156 1216.632812 C 817.316406 1273.792969 772.53125 1331.796875 715.636719 1340.179688 C 680.261719 1345.390625 644.863281 1333.621094 609.328125 1329.613281 C 573.796875 1325.609375 532.195312 1332.550781 513.480469 1363.023438 C 505.351562 1376.246094 502.800781 1392.058594 497.132812 1406.511719 C 485.402344 1436.421875 459.351562 1460.335938 428.550781 1469.46875 C 397.753906 1478.601562 362.878906 1472.753906 336.742188 1454.078125 C 319.726562 1441.921875 306.710938 1425.054688 291.101562 1411.144531 C 275.488281 1397.234375 255.363281 1385.875 234.640625 1388.652344 C 208.605469 1392.132812 190.820312 1415.910156 168.519531 1429.789062 C 138.777344 1448.304688 98.425781 1448.113281 68.863281 1429.320312 C 0.0429688 1385.578125 10.476562 1282.78125 32.199219 1217.464844 " fill-opacity="1" fill-rule="nonzero"/><g clip-path="url(#063b559ac3)"><path fill="#ffffff" d="M 714.65625 1241.09375 C 720.585938 1241.09375 726.492188 1240.71875 732.402344 1239.847656 C 785.9375 1231.964844 827.710938 1177.859375 821.800781 1124.070312 C 817.789062 1087.589844 789.933594 1056.191406 762.996094 1025.828125 C 730.628906 989.339844 697.160156 951.613281 704.152344 904.003906 C 711.183594 856.167969 673.515625 812.054688 616.53125 801.390625 C 563.828125 791.523438 488.910156 788.097656 431.320312 827.777344 C 407.640625 844.089844 388.492188 867.164062 369.96875 889.480469 C 350.105469 913.410156 329.5625 938.160156 302.882812 955.6875 C 275.90625 973.410156 244.632812 982.457031 214.386719 991.207031 C 185.179688 999.65625 154.972656 1008.390625 129.800781 1024.90625 C 97.339844 1046.203125 71.382812 1082.234375 56.707031 1126.363281 C 33.632812 1195.75 28.625 1290.722656 90.453125 1330.019531 C 117.921875 1347.480469 154.945312 1347.65625 182.578125 1330.453125 C 189.632812 1326.0625 196.199219 1320.632812 203.152344 1314.886719 C 217.414062 1303.089844 232.160156 1290.894531 251.5 1288.308594 C 276.601562 1284.945312 299.117188 1299.625 313.601562 1312.53125 C 319.875 1318.121094 325.75 1324.175781 331.421875 1330.035156 C 340.351562 1339.242188 348.785156 1347.941406 358.648438 1354.992188 C 382.917969 1372.332031 415.75 1377.832031 444.339844 1369.351562 C 472.929688 1360.875 497.457031 1338.359375 508.34375 1310.597656 C 510.265625 1305.695312 511.804688 1300.648438 513.433594 1295.300781 C 516.441406 1285.449219 519.550781 1275.265625 525.25 1265.984375 C 542.628906 1237.691406 581.023438 1223.96875 627.917969 1229.253906 C 639.328125 1230.539062 650.789062 1232.625 661.875 1234.632812 C 680.023438 1237.933594 697.421875 1241.09375 714.65625 1241.09375 Z M 550.554688 780.800781 C 575.25 780.800781 598.78125 783.675781 619.136719 787.484375 C 651.144531 793.472656 678.722656 809.058594 696.789062 831.363281 C 714.441406 853.15625 722.023438 879.683594 718.148438 906.0625 C 712.113281 947.152344 741.96875 980.808594 773.578125 1016.4375 C 801.984375 1048.460938 831.359375 1081.570312 835.859375 1122.523438 C 842.566406 1183.535156 795.1875 1244.898438 734.46875 1253.84375 C 709.0625 1257.582031 683.785156 1252.992188 659.347656 1248.554688 C 648.492188 1246.582031 637.269531 1244.542969 626.332031 1243.3125 C 610.847656 1241.566406 558.6875 1238.578125 537.300781 1273.390625 C 532.550781 1281.125 529.839844 1290.015625 526.964844 1299.429688 C 525.328125 1304.800781 523.636719 1310.347656 521.511719 1315.761719 C 509.070312 1347.488281 481.039062 1373.226562 448.359375 1382.914062 C 415.6875 1392.605469 378.160156 1386.316406 350.421875 1366.5 C 339.515625 1358.707031 330.238281 1349.136719 321.269531 1339.878906 C 315.765625 1334.207031 310.078125 1328.339844 304.191406 1323.09375 C 291.921875 1312.160156 273.148438 1299.679688 253.375 1302.328125 C 238.054688 1304.375 225.480469 1314.777344 212.164062 1325.785156 C 205.160156 1331.578125 197.917969 1337.570312 190.050781 1342.464844 C 157.898438 1362.476562 114.828125 1362.273438 82.863281 1341.957031 C 50.4375 1321.347656 31.234375 1285.652344 27.324219 1238.738281 C 23.332031 1190.839844 35.609375 1144.976562 43.28125 1121.902344 C 58.960938 1074.761719 86.929688 1036.113281 122.039062 1013.082031 C 149 995.390625 180.242188 986.355469 210.453125 977.617188 C 239.695312 969.160156 269.925781 960.414062 295.117188 943.867188 C 320.027344 927.5 339 904.640625 359.089844 880.441406 C 378.222656 857.390625 398.007812 833.554688 423.292969 816.132812 C 462.238281 789.296875 508.105469 780.800781 550.554688 780.800781 " fill-opacity="1" fill-rule="nonzero"/></g></svg>